<mxfile host="app.diagrams.net" modified="2021-08-09T14:11:17.154Z" agent="5.0 (Windows NT 10.0; Win64; x64) AppleWebKit/537.36 (KHTML, like Gecko) Chrome/92.0.4515.131 Safari/537.36" etag="5qwE7Kx0XdfV9x1Wosoc" version="14.9.3" type="github">
  <diagram id="jQupTwYvTxYuZ-gtw02p" name="Page-1">
    <mxGraphModel dx="1102" dy="450" grid="1" gridSize="10" guides="1" tooltips="1" connect="1" arrows="1" fold="1" page="1" pageScale="1" pageWidth="1654" pageHeight="1169" math="0" shadow="0">
      <root>
        <mxCell id="0" />
        <mxCell id="1" parent="0" />
        <mxCell id="o2TosGsKYlfITXXoR4Qn-41" value="VPC" style="points=[[0,0],[0.25,0],[0.5,0],[0.75,0],[1,0],[1,0.25],[1,0.5],[1,0.75],[1,1],[0.75,1],[0.5,1],[0.25,1],[0,1],[0,0.75],[0,0.5],[0,0.25]];outlineConnect=0;gradientColor=none;html=1;whiteSpace=wrap;fontSize=12;fontStyle=0;shape=mxgraph.aws4.group;grIcon=mxgraph.aws4.group_vpc;strokeColor=#248814;fillColor=none;verticalAlign=top;align=left;spacingLeft=30;fontColor=#AAB7B8;dashed=0;" parent="1" vertex="1">
          <mxGeometry x="450" y="200" width="990" height="960" as="geometry" />
        </mxCell>
        <mxCell id="o2TosGsKYlfITXXoR4Qn-6" value="" style="whiteSpace=wrap;html=1;aspect=fixed;fillColor=none;" parent="1" vertex="1">
          <mxGeometry x="533.5" y="450" width="310" height="310" as="geometry" />
        </mxCell>
        <mxCell id="o2TosGsKYlfITXXoR4Qn-13" style="edgeStyle=orthogonalEdgeStyle;rounded=0;orthogonalLoop=1;jettySize=auto;html=1;" parent="1" source="oab1egRM8cDv6VJnR18M-2" target="oab1egRM8cDv6VJnR18M-11" edge="1">
          <mxGeometry relative="1" as="geometry" />
        </mxCell>
        <mxCell id="oab1egRM8cDv6VJnR18M-2" value="" style="outlineConnect=0;dashed=0;verticalLabelPosition=bottom;verticalAlign=top;align=center;html=1;shape=mxgraph.aws3.internet_gateway;fillColor=#F58534;gradientColor=none;" parent="1" vertex="1">
          <mxGeometry x="300" y="569" width="69" height="72" as="geometry" />
        </mxCell>
        <mxCell id="oab1egRM8cDv6VJnR18M-3" value="Internet Gateway" style="text;html=1;resizable=0;autosize=1;align=center;verticalAlign=middle;points=[];fillColor=none;strokeColor=none;rounded=0;" parent="1" vertex="1">
          <mxGeometry x="300" y="622" width="110" height="20" as="geometry" />
        </mxCell>
        <mxCell id="oab1egRM8cDv6VJnR18M-15" value="Subnet 1" style="outlineConnect=0;gradientColor=none;html=1;whiteSpace=wrap;fontSize=12;fontStyle=0;shape=mxgraph.aws4.group;grIcon=mxgraph.aws4.group_subnet;strokeColor=#879196;fillColor=none;verticalAlign=top;align=left;spacingLeft=30;fontColor=#879196;dashed=0;labelBackgroundColor=#ffffff;" parent="1" vertex="1">
          <mxGeometry x="623.5" y="400" width="110" height="100" as="geometry" />
        </mxCell>
        <mxCell id="oab1egRM8cDv6VJnR18M-11" value="" style="points=[[0,0,0],[0.25,0,0],[0.5,0,0],[0.75,0,0],[1,0,0],[0,1,0],[0.25,1,0],[0.5,1,0],[0.75,1,0],[1,1,0],[0,0.25,0],[0,0.5,0],[0,0.75,0],[1,0.25,0],[1,0.5,0],[1,0.75,0]];outlineConnect=0;fontColor=#232F3E;gradientColor=#F78E04;gradientDirection=north;fillColor=#D05C17;strokeColor=#ffffff;dashed=0;verticalLabelPosition=bottom;verticalAlign=top;align=center;html=1;fontSize=12;fontStyle=0;aspect=fixed;shape=mxgraph.aws4.resourceIcon;resIcon=mxgraph.aws4.elastic_load_balancing;" parent="1" vertex="1">
          <mxGeometry x="503.5" y="570" width="70" height="70" as="geometry" />
        </mxCell>
        <mxCell id="o2TosGsKYlfITXXoR4Qn-30" style="edgeStyle=orthogonalEdgeStyle;rounded=0;orthogonalLoop=1;jettySize=auto;html=1;" parent="1" source="oab1egRM8cDv6VJnR18M-16" edge="1">
          <mxGeometry relative="1" as="geometry">
            <mxPoint x="760" y="920" as="targetPoint" />
            <Array as="points">
              <mxPoint x="679" y="920" />
            </Array>
          </mxGeometry>
        </mxCell>
        <mxCell id="oab1egRM8cDv6VJnR18M-16" value="Subnet 2" style="outlineConnect=0;gradientColor=none;html=1;whiteSpace=wrap;fontSize=12;fontStyle=0;shape=mxgraph.aws4.group;grIcon=mxgraph.aws4.group_subnet;strokeColor=#879196;fillColor=none;verticalAlign=top;align=left;spacingLeft=30;fontColor=#879196;dashed=0;labelBackgroundColor=#ffffff;" parent="1" vertex="1">
          <mxGeometry x="623.5" y="710" width="110" height="100" as="geometry" />
        </mxCell>
        <mxCell id="oab1egRM8cDv6VJnR18M-17" value="AWS Fargate" style="outlineConnect=0;fontColor=#232F3E;gradientColor=none;strokeColor=#ffffff;fillColor=#232F3E;dashed=0;verticalLabelPosition=middle;verticalAlign=bottom;align=center;html=1;whiteSpace=wrap;fontSize=10;fontStyle=1;spacing=3;shape=mxgraph.aws4.productIcon;prIcon=mxgraph.aws4.fargate;labelBackgroundColor=#ffffff;" parent="1" vertex="1">
          <mxGeometry x="653.5" y="420" width="50" height="70" as="geometry" />
        </mxCell>
        <mxCell id="oab1egRM8cDv6VJnR18M-18" value="AWS Fargate" style="outlineConnect=0;fontColor=#232F3E;gradientColor=none;strokeColor=#ffffff;fillColor=#232F3E;dashed=0;verticalLabelPosition=middle;verticalAlign=bottom;align=center;html=1;whiteSpace=wrap;fontSize=10;fontStyle=1;spacing=3;shape=mxgraph.aws4.productIcon;prIcon=mxgraph.aws4.fargate;labelBackgroundColor=#ffffff;" parent="1" vertex="1">
          <mxGeometry x="653.5" y="732" width="50" height="73" as="geometry" />
        </mxCell>
        <mxCell id="oab1egRM8cDv6VJnR18M-23" value="" style="points=[[0,0,0],[0.25,0,0],[0.5,0,0],[0.75,0,0],[1,0,0],[0,1,0],[0.25,1,0],[0.5,1,0],[0.75,1,0],[1,1,0],[0,0.25,0],[0,0.5,0],[0,0.75,0],[1,0.25,0],[1,0.5,0],[1,0.75,0]];outlineConnect=0;fontColor=#232F3E;gradientColor=#4D72F3;gradientDirection=north;fillColor=#3334B9;strokeColor=#ffffff;dashed=0;verticalLabelPosition=bottom;verticalAlign=top;align=center;html=1;fontSize=12;fontStyle=0;aspect=fixed;shape=mxgraph.aws4.resourceIcon;resIcon=mxgraph.aws4.documentdb_with_mongodb_compatibility;labelBackgroundColor=#ffffff;" parent="1" vertex="1">
          <mxGeometry x="803.5" y="562" width="78" height="78" as="geometry" />
        </mxCell>
        <mxCell id="o2TosGsKYlfITXXoR4Qn-32" style="edgeStyle=orthogonalEdgeStyle;rounded=0;orthogonalLoop=1;jettySize=auto;html=1;" parent="1" source="oab1egRM8cDv6VJnR18M-36" edge="1">
          <mxGeometry relative="1" as="geometry">
            <mxPoint x="960" y="840" as="targetPoint" />
          </mxGeometry>
        </mxCell>
        <mxCell id="oab1egRM8cDv6VJnR18M-36" value="" style="points=[[0,0,0],[0.25,0,0],[0.5,0,0],[0.75,0,0],[1,0,0],[0,1,0],[0.25,1,0],[0.5,1,0],[0.75,1,0],[1,1,0],[0,0.25,0],[0,0.5,0],[0,0.75,0],[1,0.25,0],[1,0.5,0],[1,0.75,0]];points=[[0,0,0],[0.25,0,0],[0.5,0,0],[0.75,0,0],[1,0,0],[0,1,0],[0.25,1,0],[0.5,1,0],[0.75,1,0],[1,1,0],[0,0.25,0],[0,0.5,0],[0,0.75,0],[1,0.25,0],[1,0.5,0],[1,0.75,0]];outlineConnect=0;fontColor=#232F3E;gradientColor=#F34482;gradientDirection=north;fillColor=#BC1356;strokeColor=#ffffff;dashed=0;verticalLabelPosition=bottom;verticalAlign=top;align=center;html=1;fontSize=12;fontStyle=0;aspect=fixed;shape=mxgraph.aws4.resourceIcon;resIcon=mxgraph.aws4.cloudwatch_2;labelBackgroundColor=#ffffff;" parent="1" vertex="1">
          <mxGeometry x="760.5" y="880" width="78" height="78" as="geometry" />
        </mxCell>
        <mxCell id="o2TosGsKYlfITXXoR4Qn-34" style="edgeStyle=orthogonalEdgeStyle;rounded=0;orthogonalLoop=1;jettySize=auto;html=1;" parent="1" source="oab1egRM8cDv6VJnR18M-40" target="o2TosGsKYlfITXXoR4Qn-33" edge="1">
          <mxGeometry relative="1" as="geometry" />
        </mxCell>
        <mxCell id="oab1egRM8cDv6VJnR18M-40" value="" style="points=[[0,0,0],[0.25,0,0],[0.5,0,0],[0.75,0,0],[1,0,0],[0,1,0],[0.25,1,0],[0.5,1,0],[0.75,1,0],[1,1,0],[0,0.25,0],[0,0.5,0],[0,0.75,0],[1,0.25,0],[1,0.5,0],[1,0.75,0]];outlineConnect=0;fontColor=#232F3E;gradientColor=#4D72F3;gradientDirection=north;fillColor=#3334B9;strokeColor=#ffffff;dashed=0;verticalLabelPosition=bottom;verticalAlign=top;align=center;html=1;fontSize=12;fontStyle=0;aspect=fixed;shape=mxgraph.aws4.resourceIcon;resIcon=mxgraph.aws4.dynamodb;labelBackgroundColor=#ffffff;" parent="1" vertex="1">
          <mxGeometry x="921" y="760" width="78" height="78" as="geometry" />
        </mxCell>
        <mxCell id="oab1egRM8cDv6VJnR18M-41" value="Private subnet" style="points=[[0,0],[0.25,0],[0.5,0],[0.75,0],[1,0],[1,0.25],[1,0.5],[1,0.75],[1,1],[0.75,1],[0.5,1],[0.25,1],[0,1],[0,0.75],[0,0.5],[0,0.25]];outlineConnect=0;gradientColor=none;html=1;whiteSpace=wrap;fontSize=12;fontStyle=0;shape=mxgraph.aws4.group;grIcon=mxgraph.aws4.group_security_group;grStroke=0;strokeColor=#147EBA;fillColor=#E6F2F8;verticalAlign=top;align=left;spacingLeft=30;fontColor=#147EBA;dashed=0;labelBackgroundColor=#ffffff;" parent="1" vertex="1">
          <mxGeometry x="990" y="470" width="130" height="90" as="geometry" />
        </mxCell>
        <mxCell id="oab1egRM8cDv6VJnR18M-45" value="DynamoDB" style="text;html=1;resizable=0;autosize=1;align=center;verticalAlign=middle;points=[];fillColor=none;strokeColor=none;rounded=0;dashed=0;labelBackgroundColor=#ffffff;fontColor=#232F3E;" parent="1" vertex="1">
          <mxGeometry x="910" y="740" width="80" height="20" as="geometry" />
        </mxCell>
        <mxCell id="oab1egRM8cDv6VJnR18M-47" value="AWS Fargate" style="outlineConnect=0;fontColor=#232F3E;gradientColor=none;strokeColor=#ffffff;fillColor=#232F3E;dashed=0;verticalLabelPosition=middle;verticalAlign=bottom;align=center;html=1;whiteSpace=wrap;fontSize=10;fontStyle=1;spacing=3;shape=mxgraph.aws4.productIcon;prIcon=mxgraph.aws4.fargate;labelBackgroundColor=#ffffff;" parent="1" vertex="1">
          <mxGeometry x="1030" y="500" width="50" height="70" as="geometry" />
        </mxCell>
        <mxCell id="oab1egRM8cDv6VJnR18M-48" value="" style="points=[[0,0,0],[0.25,0,0],[0.5,0,0],[0.75,0,0],[1,0,0],[0,1,0],[0.25,1,0],[0.5,1,0],[0.75,1,0],[1,1,0],[0,0.25,0],[0,0.5,0],[0,0.75,0],[1,0.25,0],[1,0.5,0],[1,0.75,0]];outlineConnect=0;fontColor=#232F3E;gradientColor=#4AB29A;gradientDirection=north;fillColor=#116D5B;strokeColor=#ffffff;dashed=0;verticalLabelPosition=bottom;verticalAlign=top;align=center;html=1;fontSize=12;fontStyle=0;aspect=fixed;shape=mxgraph.aws4.resourceIcon;resIcon=mxgraph.aws4.transfer_for_sftp;labelBackgroundColor=#ffffff;" parent="1" vertex="1">
          <mxGeometry x="410" y="1040" width="78" height="78" as="geometry" />
        </mxCell>
        <mxCell id="oab1egRM8cDv6VJnR18M-49" value="" style="endArrow=classic;html=1;fontColor=#232F3E;strokeWidth=1;" parent="1" edge="1">
          <mxGeometry width="50" height="50" relative="1" as="geometry">
            <mxPoint x="488" y="1090" as="sourcePoint" />
            <mxPoint x="600" y="1090" as="targetPoint" />
            <Array as="points">
              <mxPoint x="538" y="1090" />
            </Array>
          </mxGeometry>
        </mxCell>
        <mxCell id="oab1egRM8cDv6VJnR18M-50" value="Transfer SFTP" style="text;html=1;resizable=0;autosize=1;align=center;verticalAlign=middle;points=[];fillColor=none;strokeColor=none;rounded=0;dashed=0;labelBackgroundColor=#ffffff;fontColor=#232F3E;" parent="1" vertex="1">
          <mxGeometry x="410" y="1020" width="90" height="20" as="geometry" />
        </mxCell>
        <mxCell id="oab1egRM8cDv6VJnR18M-51" value="" style="outlineConnect=0;fontColor=#232F3E;gradientColor=none;fillColor=#277116;strokeColor=none;dashed=0;verticalLabelPosition=bottom;verticalAlign=top;align=center;html=1;fontSize=12;fontStyle=0;aspect=fixed;pointerEvents=1;shape=mxgraph.aws4.bucket;labelBackgroundColor=#ffffff;" parent="1" vertex="1">
          <mxGeometry x="605" y="1040" width="75" height="78" as="geometry" />
        </mxCell>
        <mxCell id="o2TosGsKYlfITXXoR4Qn-22" style="edgeStyle=orthogonalEdgeStyle;rounded=0;orthogonalLoop=1;jettySize=auto;html=1;" parent="1" source="oab1egRM8cDv6VJnR18M-53" target="oab1egRM8cDv6VJnR18M-47" edge="1">
          <mxGeometry relative="1" as="geometry" />
        </mxCell>
        <mxCell id="oab1egRM8cDv6VJnR18M-53" value="" style="points=[[0,0,0],[0.25,0,0],[0.5,0,0],[0.75,0,0],[1,0,0],[0,1,0],[0.25,1,0],[0.5,1,0],[0.75,1,0],[1,1,0],[0,0.25,0],[0,0.5,0],[0,0.75,0],[1,0.25,0],[1,0.5,0],[1,0.75,0]];outlineConnect=0;fontColor=#232F3E;gradientColor=#945DF2;gradientDirection=north;fillColor=#5A30B5;strokeColor=#ffffff;dashed=0;verticalLabelPosition=bottom;verticalAlign=top;align=center;html=1;fontSize=12;fontStyle=0;aspect=fixed;shape=mxgraph.aws4.resourceIcon;resIcon=mxgraph.aws4.client_vpn;labelBackgroundColor=#ffffff;" parent="1" vertex="1">
          <mxGeometry x="900" y="330" width="78" height="78" as="geometry" />
        </mxCell>
        <mxCell id="oab1egRM8cDv6VJnR18M-55" value="VPN Client" style="text;html=1;resizable=0;autosize=1;align=center;verticalAlign=middle;points=[];fillColor=none;strokeColor=none;rounded=0;dashed=0;labelBackgroundColor=#ffffff;fontColor=#232F3E;" parent="1" vertex="1">
          <mxGeometry x="903" y="410" width="70" height="20" as="geometry" />
        </mxCell>
        <mxCell id="oab1egRM8cDv6VJnR18M-56" value="S3 Bucket" style="text;html=1;resizable=0;autosize=1;align=center;verticalAlign=middle;points=[];fillColor=none;strokeColor=none;rounded=0;dashed=0;labelBackgroundColor=#ffffff;fontColor=#232F3E;" parent="1" vertex="1">
          <mxGeometry x="605" y="1020" width="70" height="20" as="geometry" />
        </mxCell>
        <mxCell id="o2TosGsKYlfITXXoR4Qn-16" value="Cloudwatch" style="text;html=1;resizable=0;autosize=1;align=center;verticalAlign=middle;points=[];fillColor=none;strokeColor=none;rounded=0;dashed=0;labelBackgroundColor=#ffffff;fontColor=#232F3E;" parent="1" vertex="1">
          <mxGeometry x="758.5" y="858" width="80" height="20" as="geometry" />
        </mxCell>
        <mxCell id="o2TosGsKYlfITXXoR4Qn-27" value="ELB" style="text;html=1;resizable=0;autosize=1;align=center;verticalAlign=middle;points=[];fillColor=none;strokeColor=none;rounded=0;" parent="1" vertex="1">
          <mxGeometry x="516.5" y="647" width="40" height="20" as="geometry" />
        </mxCell>
        <mxCell id="o2TosGsKYlfITXXoR4Qn-38" style="edgeStyle=orthogonalEdgeStyle;rounded=0;orthogonalLoop=1;jettySize=auto;html=1;" parent="1" source="o2TosGsKYlfITXXoR4Qn-33" edge="1">
          <mxGeometry relative="1" as="geometry">
            <mxPoint x="1169" y="680" as="targetPoint" />
          </mxGeometry>
        </mxCell>
        <mxCell id="o2TosGsKYlfITXXoR4Qn-33" value="" style="points=[[0,0,0],[0.25,0,0],[0.5,0,0],[0.75,0,0],[1,0,0],[0,1,0],[0.25,1,0],[0.5,1,0],[0.75,1,0],[1,1,0],[0,0.25,0],[0,0.5,0],[0,0.75,0],[1,0.25,0],[1,0.5,0],[1,0.75,0]];outlineConnect=0;fontColor=#232F3E;gradientColor=#945DF2;gradientDirection=north;fillColor=#5A30B5;strokeColor=#ffffff;dashed=0;verticalLabelPosition=bottom;verticalAlign=top;align=center;html=1;fontSize=12;fontStyle=0;aspect=fixed;shape=mxgraph.aws4.resourceIcon;resIcon=mxgraph.aws4.athena;" parent="1" vertex="1">
          <mxGeometry x="1130" y="760" width="78" height="78" as="geometry" />
        </mxCell>
        <mxCell id="o2TosGsKYlfITXXoR4Qn-35" value="athena connecter" style="text;html=1;resizable=0;autosize=1;align=center;verticalAlign=middle;points=[];fillColor=none;strokeColor=none;rounded=0;" parent="1" vertex="1">
          <mxGeometry x="1114" y="732" width="110" height="20" as="geometry" />
        </mxCell>
        <mxCell id="o2TosGsKYlfITXXoR4Qn-39" style="edgeStyle=orthogonalEdgeStyle;rounded=0;orthogonalLoop=1;jettySize=auto;html=1;" parent="1" source="o2TosGsKYlfITXXoR4Qn-36" target="oab1egRM8cDv6VJnR18M-47" edge="1">
          <mxGeometry relative="1" as="geometry" />
        </mxCell>
        <mxCell id="o2TosGsKYlfITXXoR4Qn-36" value="" style="points=[[0,0,0],[0.25,0,0],[0.5,0,0],[0.75,0,0],[1,0,0],[0,1,0],[0.25,1,0],[0.5,1,0],[0.75,1,0],[1,1,0],[0,0.25,0],[0,0.5,0],[0,0.75,0],[1,0.25,0],[1,0.5,0],[1,0.75,0]];outlineConnect=0;fontColor=#232F3E;gradientColor=#945DF2;gradientDirection=north;fillColor=#5A30B5;strokeColor=#ffffff;dashed=0;verticalLabelPosition=bottom;verticalAlign=top;align=center;html=1;fontSize=12;fontStyle=0;aspect=fixed;shape=mxgraph.aws4.resourceIcon;resIcon=mxgraph.aws4.quicksight;" parent="1" vertex="1">
          <mxGeometry x="1130" y="600" width="78" height="78" as="geometry" />
        </mxCell>
        <mxCell id="o2TosGsKYlfITXXoR4Qn-37" value="Quicksight" style="text;html=1;resizable=0;autosize=1;align=center;verticalAlign=middle;points=[];fillColor=none;strokeColor=none;rounded=0;" parent="1" vertex="1">
          <mxGeometry x="1134" y="573" width="70" height="20" as="geometry" />
        </mxCell>
        <mxCell id="o2TosGsKYlfITXXoR4Qn-42" value="VPC" style="points=[[0,0],[0.25,0],[0.5,0],[0.75,0],[1,0],[1,0.25],[1,0.5],[1,0.75],[1,1],[0.75,1],[0.5,1],[0.25,1],[0,1],[0,0.75],[0,0.5],[0,0.25]];outlineConnect=0;gradientColor=none;html=1;whiteSpace=wrap;fontSize=12;fontStyle=0;shape=mxgraph.aws4.group;grIcon=mxgraph.aws4.group_vpc;strokeColor=#248814;fillColor=none;verticalAlign=top;align=left;spacingLeft=30;fontColor=#AAB7B8;dashed=0;" parent="1" vertex="1">
          <mxGeometry x="441" y="1350" width="990" height="960" as="geometry" />
        </mxCell>
        <mxCell id="o2TosGsKYlfITXXoR4Qn-43" value="" style="whiteSpace=wrap;html=1;aspect=fixed;fillColor=none;" parent="1" vertex="1">
          <mxGeometry x="524.5" y="1600" width="310" height="310" as="geometry" />
        </mxCell>
        <mxCell id="o2TosGsKYlfITXXoR4Qn-44" style="edgeStyle=orthogonalEdgeStyle;rounded=0;orthogonalLoop=1;jettySize=auto;html=1;" parent="1" source="o2TosGsKYlfITXXoR4Qn-45" target="o2TosGsKYlfITXXoR4Qn-48" edge="1">
          <mxGeometry relative="1" as="geometry" />
        </mxCell>
        <mxCell id="o2TosGsKYlfITXXoR4Qn-45" value="" style="outlineConnect=0;dashed=0;verticalLabelPosition=bottom;verticalAlign=top;align=center;html=1;shape=mxgraph.aws3.internet_gateway;fillColor=#F58534;gradientColor=none;" parent="1" vertex="1">
          <mxGeometry x="291" y="1719" width="69" height="72" as="geometry" />
        </mxCell>
        <mxCell id="o2TosGsKYlfITXXoR4Qn-46" value="Internet Gateway" style="text;html=1;resizable=0;autosize=1;align=center;verticalAlign=middle;points=[];fillColor=none;strokeColor=none;rounded=0;" parent="1" vertex="1">
          <mxGeometry x="291" y="1772" width="110" height="20" as="geometry" />
        </mxCell>
        <mxCell id="o2TosGsKYlfITXXoR4Qn-47" value="Subnet 1" style="outlineConnect=0;gradientColor=none;html=1;whiteSpace=wrap;fontSize=12;fontStyle=0;shape=mxgraph.aws4.group;grIcon=mxgraph.aws4.group_subnet;strokeColor=#879196;fillColor=none;verticalAlign=top;align=left;spacingLeft=30;fontColor=#879196;dashed=0;labelBackgroundColor=#ffffff;" parent="1" vertex="1">
          <mxGeometry x="614.5" y="1550" width="110" height="100" as="geometry" />
        </mxCell>
        <mxCell id="o2TosGsKYlfITXXoR4Qn-48" value="" style="points=[[0,0,0],[0.25,0,0],[0.5,0,0],[0.75,0,0],[1,0,0],[0,1,0],[0.25,1,0],[0.5,1,0],[0.75,1,0],[1,1,0],[0,0.25,0],[0,0.5,0],[0,0.75,0],[1,0.25,0],[1,0.5,0],[1,0.75,0]];outlineConnect=0;fontColor=#232F3E;gradientColor=#F78E04;gradientDirection=north;fillColor=#D05C17;strokeColor=#ffffff;dashed=0;verticalLabelPosition=bottom;verticalAlign=top;align=center;html=1;fontSize=12;fontStyle=0;aspect=fixed;shape=mxgraph.aws4.resourceIcon;resIcon=mxgraph.aws4.elastic_load_balancing;" parent="1" vertex="1">
          <mxGeometry x="494.5" y="1720" width="70" height="70" as="geometry" />
        </mxCell>
        <mxCell id="o2TosGsKYlfITXXoR4Qn-49" style="edgeStyle=orthogonalEdgeStyle;rounded=0;orthogonalLoop=1;jettySize=auto;html=1;" parent="1" source="o2TosGsKYlfITXXoR4Qn-50" edge="1">
          <mxGeometry relative="1" as="geometry">
            <mxPoint x="751" y="2070" as="targetPoint" />
            <Array as="points">
              <mxPoint x="670" y="2070" />
            </Array>
          </mxGeometry>
        </mxCell>
        <mxCell id="o2TosGsKYlfITXXoR4Qn-50" value="Subnet 2" style="outlineConnect=0;gradientColor=none;html=1;whiteSpace=wrap;fontSize=12;fontStyle=0;shape=mxgraph.aws4.group;grIcon=mxgraph.aws4.group_subnet;strokeColor=#879196;fillColor=none;verticalAlign=top;align=left;spacingLeft=30;fontColor=#879196;dashed=0;labelBackgroundColor=#ffffff;" parent="1" vertex="1">
          <mxGeometry x="614.5" y="1860" width="110" height="100" as="geometry" />
        </mxCell>
        <mxCell id="o2TosGsKYlfITXXoR4Qn-51" value="AWS Fargate" style="outlineConnect=0;fontColor=#232F3E;gradientColor=none;strokeColor=#ffffff;fillColor=#232F3E;dashed=0;verticalLabelPosition=middle;verticalAlign=bottom;align=center;html=1;whiteSpace=wrap;fontSize=10;fontStyle=1;spacing=3;shape=mxgraph.aws4.productIcon;prIcon=mxgraph.aws4.fargate;labelBackgroundColor=#ffffff;" parent="1" vertex="1">
          <mxGeometry x="644.5" y="1570" width="50" height="70" as="geometry" />
        </mxCell>
        <mxCell id="o2TosGsKYlfITXXoR4Qn-52" value="AWS Fargate" style="outlineConnect=0;fontColor=#232F3E;gradientColor=none;strokeColor=#ffffff;fillColor=#232F3E;dashed=0;verticalLabelPosition=middle;verticalAlign=bottom;align=center;html=1;whiteSpace=wrap;fontSize=10;fontStyle=1;spacing=3;shape=mxgraph.aws4.productIcon;prIcon=mxgraph.aws4.fargate;labelBackgroundColor=#ffffff;" parent="1" vertex="1">
          <mxGeometry x="644.5" y="1882" width="50" height="73" as="geometry" />
        </mxCell>
        <mxCell id="o2TosGsKYlfITXXoR4Qn-53" value="" style="points=[[0,0,0],[0.25,0,0],[0.5,0,0],[0.75,0,0],[1,0,0],[0,1,0],[0.25,1,0],[0.5,1,0],[0.75,1,0],[1,1,0],[0,0.25,0],[0,0.5,0],[0,0.75,0],[1,0.25,0],[1,0.5,0],[1,0.75,0]];outlineConnect=0;fontColor=#232F3E;gradientColor=#4D72F3;gradientDirection=north;fillColor=#3334B9;strokeColor=#ffffff;dashed=0;verticalLabelPosition=bottom;verticalAlign=top;align=center;html=1;fontSize=12;fontStyle=0;aspect=fixed;shape=mxgraph.aws4.resourceIcon;resIcon=mxgraph.aws4.documentdb_with_mongodb_compatibility;labelBackgroundColor=#ffffff;" parent="1" vertex="1">
          <mxGeometry x="794.5" y="1712" width="78" height="78" as="geometry" />
        </mxCell>
        <mxCell id="o2TosGsKYlfITXXoR4Qn-54" style="edgeStyle=orthogonalEdgeStyle;rounded=0;orthogonalLoop=1;jettySize=auto;html=1;" parent="1" source="o2TosGsKYlfITXXoR4Qn-55" edge="1">
          <mxGeometry relative="1" as="geometry">
            <mxPoint x="951" y="1990" as="targetPoint" />
          </mxGeometry>
        </mxCell>
        <mxCell id="o2TosGsKYlfITXXoR4Qn-55" value="" style="points=[[0,0,0],[0.25,0,0],[0.5,0,0],[0.75,0,0],[1,0,0],[0,1,0],[0.25,1,0],[0.5,1,0],[0.75,1,0],[1,1,0],[0,0.25,0],[0,0.5,0],[0,0.75,0],[1,0.25,0],[1,0.5,0],[1,0.75,0]];points=[[0,0,0],[0.25,0,0],[0.5,0,0],[0.75,0,0],[1,0,0],[0,1,0],[0.25,1,0],[0.5,1,0],[0.75,1,0],[1,1,0],[0,0.25,0],[0,0.5,0],[0,0.75,0],[1,0.25,0],[1,0.5,0],[1,0.75,0]];outlineConnect=0;fontColor=#232F3E;gradientColor=#F34482;gradientDirection=north;fillColor=#BC1356;strokeColor=#ffffff;dashed=0;verticalLabelPosition=bottom;verticalAlign=top;align=center;html=1;fontSize=12;fontStyle=0;aspect=fixed;shape=mxgraph.aws4.resourceIcon;resIcon=mxgraph.aws4.cloudwatch_2;labelBackgroundColor=#ffffff;" parent="1" vertex="1">
          <mxGeometry x="751.5" y="2030" width="78" height="78" as="geometry" />
        </mxCell>
        <mxCell id="o2TosGsKYlfITXXoR4Qn-56" style="edgeStyle=orthogonalEdgeStyle;rounded=0;orthogonalLoop=1;jettySize=auto;html=1;" parent="1" source="o2TosGsKYlfITXXoR4Qn-57" target="o2TosGsKYlfITXXoR4Qn-72" edge="1">
          <mxGeometry relative="1" as="geometry" />
        </mxCell>
        <mxCell id="o2TosGsKYlfITXXoR4Qn-57" value="" style="points=[[0,0,0],[0.25,0,0],[0.5,0,0],[0.75,0,0],[1,0,0],[0,1,0],[0.25,1,0],[0.5,1,0],[0.75,1,0],[1,1,0],[0,0.25,0],[0,0.5,0],[0,0.75,0],[1,0.25,0],[1,0.5,0],[1,0.75,0]];outlineConnect=0;fontColor=#232F3E;gradientColor=#4D72F3;gradientDirection=north;fillColor=#3334B9;strokeColor=#ffffff;dashed=0;verticalLabelPosition=bottom;verticalAlign=top;align=center;html=1;fontSize=12;fontStyle=0;aspect=fixed;shape=mxgraph.aws4.resourceIcon;resIcon=mxgraph.aws4.dynamodb;labelBackgroundColor=#ffffff;" parent="1" vertex="1">
          <mxGeometry x="912" y="1910" width="78" height="78" as="geometry" />
        </mxCell>
        <mxCell id="o2TosGsKYlfITXXoR4Qn-58" value="Private subnet" style="points=[[0,0],[0.25,0],[0.5,0],[0.75,0],[1,0],[1,0.25],[1,0.5],[1,0.75],[1,1],[0.75,1],[0.5,1],[0.25,1],[0,1],[0,0.75],[0,0.5],[0,0.25]];outlineConnect=0;gradientColor=none;html=1;whiteSpace=wrap;fontSize=12;fontStyle=0;shape=mxgraph.aws4.group;grIcon=mxgraph.aws4.group_security_group;grStroke=0;strokeColor=#147EBA;fillColor=#E6F2F8;verticalAlign=top;align=left;spacingLeft=30;fontColor=#147EBA;dashed=0;labelBackgroundColor=#ffffff;" parent="1" vertex="1">
          <mxGeometry x="981" y="1620" width="130" height="90" as="geometry" />
        </mxCell>
        <mxCell id="o2TosGsKYlfITXXoR4Qn-59" value="DynamoDB" style="text;html=1;resizable=0;autosize=1;align=center;verticalAlign=middle;points=[];fillColor=none;strokeColor=none;rounded=0;dashed=0;labelBackgroundColor=#ffffff;fontColor=#232F3E;" parent="1" vertex="1">
          <mxGeometry x="901" y="1890" width="80" height="20" as="geometry" />
        </mxCell>
        <mxCell id="o2TosGsKYlfITXXoR4Qn-60" value="AWS Fargate" style="outlineConnect=0;fontColor=#232F3E;gradientColor=none;strokeColor=#ffffff;fillColor=#232F3E;dashed=0;verticalLabelPosition=middle;verticalAlign=bottom;align=center;html=1;whiteSpace=wrap;fontSize=10;fontStyle=1;spacing=3;shape=mxgraph.aws4.productIcon;prIcon=mxgraph.aws4.fargate;labelBackgroundColor=#ffffff;" parent="1" vertex="1">
          <mxGeometry x="1021" y="1650" width="50" height="70" as="geometry" />
        </mxCell>
        <mxCell id="o2TosGsKYlfITXXoR4Qn-61" value="" style="points=[[0,0,0],[0.25,0,0],[0.5,0,0],[0.75,0,0],[1,0,0],[0,1,0],[0.25,1,0],[0.5,1,0],[0.75,1,0],[1,1,0],[0,0.25,0],[0,0.5,0],[0,0.75,0],[1,0.25,0],[1,0.5,0],[1,0.75,0]];outlineConnect=0;fontColor=#232F3E;gradientColor=#4AB29A;gradientDirection=north;fillColor=#116D5B;strokeColor=#ffffff;dashed=0;verticalLabelPosition=bottom;verticalAlign=top;align=center;html=1;fontSize=12;fontStyle=0;aspect=fixed;shape=mxgraph.aws4.resourceIcon;resIcon=mxgraph.aws4.transfer_for_sftp;labelBackgroundColor=#ffffff;" parent="1" vertex="1">
          <mxGeometry x="401" y="2190" width="78" height="78" as="geometry" />
        </mxCell>
        <mxCell id="o2TosGsKYlfITXXoR4Qn-62" value="" style="endArrow=classic;html=1;fontColor=#232F3E;strokeWidth=1;" parent="1" edge="1">
          <mxGeometry width="50" height="50" relative="1" as="geometry">
            <mxPoint x="479" y="2240" as="sourcePoint" />
            <mxPoint x="591" y="2240" as="targetPoint" />
            <Array as="points">
              <mxPoint x="529" y="2240" />
            </Array>
          </mxGeometry>
        </mxCell>
        <mxCell id="o2TosGsKYlfITXXoR4Qn-63" value="Transfer SFTP" style="text;html=1;resizable=0;autosize=1;align=center;verticalAlign=middle;points=[];fillColor=none;strokeColor=none;rounded=0;dashed=0;labelBackgroundColor=#ffffff;fontColor=#232F3E;" parent="1" vertex="1">
          <mxGeometry x="401" y="2170" width="90" height="20" as="geometry" />
        </mxCell>
        <mxCell id="o2TosGsKYlfITXXoR4Qn-64" value="" style="outlineConnect=0;fontColor=#232F3E;gradientColor=none;fillColor=#277116;strokeColor=none;dashed=0;verticalLabelPosition=bottom;verticalAlign=top;align=center;html=1;fontSize=12;fontStyle=0;aspect=fixed;pointerEvents=1;shape=mxgraph.aws4.bucket;labelBackgroundColor=#ffffff;" parent="1" vertex="1">
          <mxGeometry x="596" y="2190" width="75" height="78" as="geometry" />
        </mxCell>
        <mxCell id="o2TosGsKYlfITXXoR4Qn-65" style="edgeStyle=orthogonalEdgeStyle;rounded=0;orthogonalLoop=1;jettySize=auto;html=1;" parent="1" source="o2TosGsKYlfITXXoR4Qn-66" target="o2TosGsKYlfITXXoR4Qn-60" edge="1">
          <mxGeometry relative="1" as="geometry" />
        </mxCell>
        <mxCell id="o2TosGsKYlfITXXoR4Qn-66" value="" style="points=[[0,0,0],[0.25,0,0],[0.5,0,0],[0.75,0,0],[1,0,0],[0,1,0],[0.25,1,0],[0.5,1,0],[0.75,1,0],[1,1,0],[0,0.25,0],[0,0.5,0],[0,0.75,0],[1,0.25,0],[1,0.5,0],[1,0.75,0]];outlineConnect=0;fontColor=#232F3E;gradientColor=#945DF2;gradientDirection=north;fillColor=#5A30B5;strokeColor=#ffffff;dashed=0;verticalLabelPosition=bottom;verticalAlign=top;align=center;html=1;fontSize=12;fontStyle=0;aspect=fixed;shape=mxgraph.aws4.resourceIcon;resIcon=mxgraph.aws4.client_vpn;labelBackgroundColor=#ffffff;" parent="1" vertex="1">
          <mxGeometry x="891" y="1480" width="78" height="78" as="geometry" />
        </mxCell>
        <mxCell id="o2TosGsKYlfITXXoR4Qn-67" value="VPN Client" style="text;html=1;resizable=0;autosize=1;align=center;verticalAlign=middle;points=[];fillColor=none;strokeColor=none;rounded=0;dashed=0;labelBackgroundColor=#ffffff;fontColor=#232F3E;" parent="1" vertex="1">
          <mxGeometry x="894" y="1560" width="70" height="20" as="geometry" />
        </mxCell>
        <mxCell id="o2TosGsKYlfITXXoR4Qn-68" value="S3 Bucket" style="text;html=1;resizable=0;autosize=1;align=center;verticalAlign=middle;points=[];fillColor=none;strokeColor=none;rounded=0;dashed=0;labelBackgroundColor=#ffffff;fontColor=#232F3E;" parent="1" vertex="1">
          <mxGeometry x="596" y="2170" width="70" height="20" as="geometry" />
        </mxCell>
        <mxCell id="o2TosGsKYlfITXXoR4Qn-69" value="Cloudwatch" style="text;html=1;resizable=0;autosize=1;align=center;verticalAlign=middle;points=[];fillColor=none;strokeColor=none;rounded=0;dashed=0;labelBackgroundColor=#ffffff;fontColor=#232F3E;" parent="1" vertex="1">
          <mxGeometry x="749.5" y="2008" width="80" height="20" as="geometry" />
        </mxCell>
        <mxCell id="o2TosGsKYlfITXXoR4Qn-70" value="ELB" style="text;html=1;resizable=0;autosize=1;align=center;verticalAlign=middle;points=[];fillColor=none;strokeColor=none;rounded=0;" parent="1" vertex="1">
          <mxGeometry x="507.5" y="1797" width="40" height="20" as="geometry" />
        </mxCell>
        <mxCell id="o2TosGsKYlfITXXoR4Qn-71" style="edgeStyle=orthogonalEdgeStyle;rounded=0;orthogonalLoop=1;jettySize=auto;html=1;" parent="1" source="o2TosGsKYlfITXXoR4Qn-72" edge="1">
          <mxGeometry relative="1" as="geometry">
            <mxPoint x="1159.9999999999995" y="1829.9999999999998" as="targetPoint" />
          </mxGeometry>
        </mxCell>
        <mxCell id="o2TosGsKYlfITXXoR4Qn-72" value="" style="points=[[0,0,0],[0.25,0,0],[0.5,0,0],[0.75,0,0],[1,0,0],[0,1,0],[0.25,1,0],[0.5,1,0],[0.75,1,0],[1,1,0],[0,0.25,0],[0,0.5,0],[0,0.75,0],[1,0.25,0],[1,0.5,0],[1,0.75,0]];outlineConnect=0;fontColor=#232F3E;gradientColor=#945DF2;gradientDirection=north;fillColor=#5A30B5;strokeColor=#ffffff;dashed=0;verticalLabelPosition=bottom;verticalAlign=top;align=center;html=1;fontSize=12;fontStyle=0;aspect=fixed;shape=mxgraph.aws4.resourceIcon;resIcon=mxgraph.aws4.athena;" parent="1" vertex="1">
          <mxGeometry x="1121" y="1910" width="78" height="78" as="geometry" />
        </mxCell>
        <mxCell id="o2TosGsKYlfITXXoR4Qn-73" value="athena connecter" style="text;html=1;resizable=0;autosize=1;align=center;verticalAlign=middle;points=[];fillColor=none;strokeColor=none;rounded=0;" parent="1" vertex="1">
          <mxGeometry x="1105" y="1882" width="110" height="20" as="geometry" />
        </mxCell>
        <mxCell id="o2TosGsKYlfITXXoR4Qn-74" style="edgeStyle=orthogonalEdgeStyle;rounded=0;orthogonalLoop=1;jettySize=auto;html=1;" parent="1" source="o2TosGsKYlfITXXoR4Qn-75" target="o2TosGsKYlfITXXoR4Qn-60" edge="1">
          <mxGeometry relative="1" as="geometry" />
        </mxCell>
        <mxCell id="o2TosGsKYlfITXXoR4Qn-75" value="" style="points=[[0,0,0],[0.25,0,0],[0.5,0,0],[0.75,0,0],[1,0,0],[0,1,0],[0.25,1,0],[0.5,1,0],[0.75,1,0],[1,1,0],[0,0.25,0],[0,0.5,0],[0,0.75,0],[1,0.25,0],[1,0.5,0],[1,0.75,0]];outlineConnect=0;fontColor=#232F3E;gradientColor=#945DF2;gradientDirection=north;fillColor=#5A30B5;strokeColor=#ffffff;dashed=0;verticalLabelPosition=bottom;verticalAlign=top;align=center;html=1;fontSize=12;fontStyle=0;aspect=fixed;shape=mxgraph.aws4.resourceIcon;resIcon=mxgraph.aws4.quicksight;" parent="1" vertex="1">
          <mxGeometry x="1121" y="1750" width="78" height="78" as="geometry" />
        </mxCell>
        <mxCell id="o2TosGsKYlfITXXoR4Qn-76" value="Quicksight" style="text;html=1;resizable=0;autosize=1;align=center;verticalAlign=middle;points=[];fillColor=none;strokeColor=none;rounded=0;" parent="1" vertex="1">
          <mxGeometry x="1125" y="1723" width="70" height="20" as="geometry" />
        </mxCell>
        <mxCell id="o2TosGsKYlfITXXoR4Qn-77" value="VPC" style="points=[[0,0],[0.25,0],[0.5,0],[0.75,0],[1,0],[1,0.25],[1,0.5],[1,0.75],[1,1],[0.75,1],[0.5,1],[0.25,1],[0,1],[0,0.75],[0,0.5],[0,0.25]];outlineConnect=0;gradientColor=none;html=1;whiteSpace=wrap;fontSize=12;fontStyle=0;shape=mxgraph.aws4.group;grIcon=mxgraph.aws4.group_vpc;strokeColor=#248814;fillColor=none;verticalAlign=top;align=left;spacingLeft=30;fontColor=#AAB7B8;dashed=0;" parent="1" vertex="1">
          <mxGeometry x="441" y="2504" width="990" height="960" as="geometry" />
        </mxCell>
        <mxCell id="o2TosGsKYlfITXXoR4Qn-78" value="" style="whiteSpace=wrap;html=1;aspect=fixed;fillColor=none;" parent="1" vertex="1">
          <mxGeometry x="524.5" y="2754" width="310" height="310" as="geometry" />
        </mxCell>
        <mxCell id="o2TosGsKYlfITXXoR4Qn-79" style="edgeStyle=orthogonalEdgeStyle;rounded=0;orthogonalLoop=1;jettySize=auto;html=1;" parent="1" target="o2TosGsKYlfITXXoR4Qn-83" edge="1">
          <mxGeometry relative="1" as="geometry">
            <mxPoint x="360.00000000000045" y="2909" as="sourcePoint" />
          </mxGeometry>
        </mxCell>
        <mxCell id="o2TosGsKYlfITXXoR4Qn-80" value="" style="outlineConnect=0;dashed=0;verticalLabelPosition=bottom;verticalAlign=top;align=center;html=1;shape=mxgraph.aws3.internet_gateway;fillColor=#F58534;gradientColor=none;" parent="1" vertex="1">
          <mxGeometry x="290" y="2872" width="69" height="72" as="geometry" />
        </mxCell>
        <mxCell id="o2TosGsKYlfITXXoR4Qn-81" value="Internet Gateway" style="text;html=1;resizable=0;autosize=1;align=center;verticalAlign=middle;points=[];fillColor=none;strokeColor=none;rounded=0;" parent="1" vertex="1">
          <mxGeometry x="307" y="2696" width="110" height="20" as="geometry" />
        </mxCell>
        <mxCell id="o2TosGsKYlfITXXoR4Qn-82" value="Subnet 1" style="outlineConnect=0;gradientColor=none;html=1;whiteSpace=wrap;fontSize=12;fontStyle=0;shape=mxgraph.aws4.group;grIcon=mxgraph.aws4.group_subnet;strokeColor=#879196;fillColor=none;verticalAlign=top;align=left;spacingLeft=30;fontColor=#879196;dashed=0;labelBackgroundColor=#ffffff;" parent="1" vertex="1">
          <mxGeometry x="614.5" y="2704" width="110" height="100" as="geometry" />
        </mxCell>
        <mxCell id="o2TosGsKYlfITXXoR4Qn-83" value="" style="points=[[0,0,0],[0.25,0,0],[0.5,0,0],[0.75,0,0],[1,0,0],[0,1,0],[0.25,1,0],[0.5,1,0],[0.75,1,0],[1,1,0],[0,0.25,0],[0,0.5,0],[0,0.75,0],[1,0.25,0],[1,0.5,0],[1,0.75,0]];outlineConnect=0;fontColor=#232F3E;gradientColor=#F78E04;gradientDirection=north;fillColor=#D05C17;strokeColor=#ffffff;dashed=0;verticalLabelPosition=bottom;verticalAlign=top;align=center;html=1;fontSize=12;fontStyle=0;aspect=fixed;shape=mxgraph.aws4.resourceIcon;resIcon=mxgraph.aws4.elastic_load_balancing;" parent="1" vertex="1">
          <mxGeometry x="494.5" y="2874" width="70" height="70" as="geometry" />
        </mxCell>
        <mxCell id="o2TosGsKYlfITXXoR4Qn-84" style="edgeStyle=orthogonalEdgeStyle;rounded=0;orthogonalLoop=1;jettySize=auto;html=1;" parent="1" source="o2TosGsKYlfITXXoR4Qn-85" edge="1">
          <mxGeometry relative="1" as="geometry">
            <mxPoint x="751" y="3224" as="targetPoint" />
            <Array as="points">
              <mxPoint x="670" y="3224" />
            </Array>
          </mxGeometry>
        </mxCell>
        <mxCell id="o2TosGsKYlfITXXoR4Qn-85" value="Subnet 2" style="outlineConnect=0;gradientColor=none;html=1;whiteSpace=wrap;fontSize=12;fontStyle=0;shape=mxgraph.aws4.group;grIcon=mxgraph.aws4.group_subnet;strokeColor=#879196;fillColor=none;verticalAlign=top;align=left;spacingLeft=30;fontColor=#879196;dashed=0;labelBackgroundColor=#ffffff;" parent="1" vertex="1">
          <mxGeometry x="614.5" y="3014" width="110" height="100" as="geometry" />
        </mxCell>
        <mxCell id="o2TosGsKYlfITXXoR4Qn-86" value="AWS Fargate" style="outlineConnect=0;fontColor=#232F3E;gradientColor=none;strokeColor=#ffffff;fillColor=#232F3E;dashed=0;verticalLabelPosition=middle;verticalAlign=bottom;align=center;html=1;whiteSpace=wrap;fontSize=10;fontStyle=1;spacing=3;shape=mxgraph.aws4.productIcon;prIcon=mxgraph.aws4.fargate;labelBackgroundColor=#ffffff;" parent="1" vertex="1">
          <mxGeometry x="644.5" y="2724" width="50" height="70" as="geometry" />
        </mxCell>
        <mxCell id="o2TosGsKYlfITXXoR4Qn-87" value="AWS Fargate" style="outlineConnect=0;fontColor=#232F3E;gradientColor=none;strokeColor=#ffffff;fillColor=#232F3E;dashed=0;verticalLabelPosition=middle;verticalAlign=bottom;align=center;html=1;whiteSpace=wrap;fontSize=10;fontStyle=1;spacing=3;shape=mxgraph.aws4.productIcon;prIcon=mxgraph.aws4.fargate;labelBackgroundColor=#ffffff;" parent="1" vertex="1">
          <mxGeometry x="644.5" y="3036" width="50" height="73" as="geometry" />
        </mxCell>
        <mxCell id="o2TosGsKYlfITXXoR4Qn-88" value="" style="points=[[0,0,0],[0.25,0,0],[0.5,0,0],[0.75,0,0],[1,0,0],[0,1,0],[0.25,1,0],[0.5,1,0],[0.75,1,0],[1,1,0],[0,0.25,0],[0,0.5,0],[0,0.75,0],[1,0.25,0],[1,0.5,0],[1,0.75,0]];outlineConnect=0;fontColor=#232F3E;gradientColor=#4D72F3;gradientDirection=north;fillColor=#3334B9;strokeColor=#ffffff;dashed=0;verticalLabelPosition=bottom;verticalAlign=top;align=center;html=1;fontSize=12;fontStyle=0;aspect=fixed;shape=mxgraph.aws4.resourceIcon;resIcon=mxgraph.aws4.documentdb_with_mongodb_compatibility;labelBackgroundColor=#ffffff;" parent="1" vertex="1">
          <mxGeometry x="794.5" y="2866" width="78" height="78" as="geometry" />
        </mxCell>
        <mxCell id="o2TosGsKYlfITXXoR4Qn-89" style="edgeStyle=orthogonalEdgeStyle;rounded=0;orthogonalLoop=1;jettySize=auto;html=1;" parent="1" source="o2TosGsKYlfITXXoR4Qn-90" edge="1">
          <mxGeometry relative="1" as="geometry">
            <mxPoint x="951" y="3144" as="targetPoint" />
          </mxGeometry>
        </mxCell>
        <mxCell id="o2TosGsKYlfITXXoR4Qn-90" value="" style="points=[[0,0,0],[0.25,0,0],[0.5,0,0],[0.75,0,0],[1,0,0],[0,1,0],[0.25,1,0],[0.5,1,0],[0.75,1,0],[1,1,0],[0,0.25,0],[0,0.5,0],[0,0.75,0],[1,0.25,0],[1,0.5,0],[1,0.75,0]];points=[[0,0,0],[0.25,0,0],[0.5,0,0],[0.75,0,0],[1,0,0],[0,1,0],[0.25,1,0],[0.5,1,0],[0.75,1,0],[1,1,0],[0,0.25,0],[0,0.5,0],[0,0.75,0],[1,0.25,0],[1,0.5,0],[1,0.75,0]];outlineConnect=0;fontColor=#232F3E;gradientColor=#F34482;gradientDirection=north;fillColor=#BC1356;strokeColor=#ffffff;dashed=0;verticalLabelPosition=bottom;verticalAlign=top;align=center;html=1;fontSize=12;fontStyle=0;aspect=fixed;shape=mxgraph.aws4.resourceIcon;resIcon=mxgraph.aws4.cloudwatch_2;labelBackgroundColor=#ffffff;" parent="1" vertex="1">
          <mxGeometry x="751.5" y="3184" width="78" height="78" as="geometry" />
        </mxCell>
        <mxCell id="o2TosGsKYlfITXXoR4Qn-91" style="edgeStyle=orthogonalEdgeStyle;rounded=0;orthogonalLoop=1;jettySize=auto;html=1;" parent="1" source="o2TosGsKYlfITXXoR4Qn-92" target="o2TosGsKYlfITXXoR4Qn-107" edge="1">
          <mxGeometry relative="1" as="geometry" />
        </mxCell>
        <mxCell id="o2TosGsKYlfITXXoR4Qn-92" value="" style="points=[[0,0,0],[0.25,0,0],[0.5,0,0],[0.75,0,0],[1,0,0],[0,1,0],[0.25,1,0],[0.5,1,0],[0.75,1,0],[1,1,0],[0,0.25,0],[0,0.5,0],[0,0.75,0],[1,0.25,0],[1,0.5,0],[1,0.75,0]];outlineConnect=0;fontColor=#232F3E;gradientColor=#4D72F3;gradientDirection=north;fillColor=#3334B9;strokeColor=#ffffff;dashed=0;verticalLabelPosition=bottom;verticalAlign=top;align=center;html=1;fontSize=12;fontStyle=0;aspect=fixed;shape=mxgraph.aws4.resourceIcon;resIcon=mxgraph.aws4.dynamodb;labelBackgroundColor=#ffffff;" parent="1" vertex="1">
          <mxGeometry x="912" y="3064" width="78" height="78" as="geometry" />
        </mxCell>
        <mxCell id="o2TosGsKYlfITXXoR4Qn-93" value="Private subnet" style="points=[[0,0],[0.25,0],[0.5,0],[0.75,0],[1,0],[1,0.25],[1,0.5],[1,0.75],[1,1],[0.75,1],[0.5,1],[0.25,1],[0,1],[0,0.75],[0,0.5],[0,0.25]];outlineConnect=0;gradientColor=none;html=1;whiteSpace=wrap;fontSize=12;fontStyle=0;shape=mxgraph.aws4.group;grIcon=mxgraph.aws4.group_security_group;grStroke=0;strokeColor=#147EBA;fillColor=#E6F2F8;verticalAlign=top;align=left;spacingLeft=30;fontColor=#147EBA;dashed=0;labelBackgroundColor=#ffffff;" parent="1" vertex="1">
          <mxGeometry x="981" y="2774" width="130" height="90" as="geometry" />
        </mxCell>
        <mxCell id="o2TosGsKYlfITXXoR4Qn-94" value="DynamoDB" style="text;html=1;resizable=0;autosize=1;align=center;verticalAlign=middle;points=[];fillColor=none;strokeColor=none;rounded=0;dashed=0;labelBackgroundColor=#ffffff;fontColor=#232F3E;" parent="1" vertex="1">
          <mxGeometry x="901" y="3044" width="80" height="20" as="geometry" />
        </mxCell>
        <mxCell id="o2TosGsKYlfITXXoR4Qn-95" value="AWS Fargate" style="outlineConnect=0;fontColor=#232F3E;gradientColor=none;strokeColor=#ffffff;fillColor=#232F3E;dashed=0;verticalLabelPosition=middle;verticalAlign=bottom;align=center;html=1;whiteSpace=wrap;fontSize=10;fontStyle=1;spacing=3;shape=mxgraph.aws4.productIcon;prIcon=mxgraph.aws4.fargate;labelBackgroundColor=#ffffff;" parent="1" vertex="1">
          <mxGeometry x="1021" y="2804" width="50" height="70" as="geometry" />
        </mxCell>
        <mxCell id="o2TosGsKYlfITXXoR4Qn-96" value="" style="points=[[0,0,0],[0.25,0,0],[0.5,0,0],[0.75,0,0],[1,0,0],[0,1,0],[0.25,1,0],[0.5,1,0],[0.75,1,0],[1,1,0],[0,0.25,0],[0,0.5,0],[0,0.75,0],[1,0.25,0],[1,0.5,0],[1,0.75,0]];outlineConnect=0;fontColor=#232F3E;gradientColor=#4AB29A;gradientDirection=north;fillColor=#116D5B;strokeColor=#ffffff;dashed=0;verticalLabelPosition=bottom;verticalAlign=top;align=center;html=1;fontSize=12;fontStyle=0;aspect=fixed;shape=mxgraph.aws4.resourceIcon;resIcon=mxgraph.aws4.transfer_for_sftp;labelBackgroundColor=#ffffff;" parent="1" vertex="1">
          <mxGeometry x="401" y="3344" width="78" height="78" as="geometry" />
        </mxCell>
        <mxCell id="o2TosGsKYlfITXXoR4Qn-97" value="" style="endArrow=classic;html=1;fontColor=#232F3E;strokeWidth=1;" parent="1" edge="1">
          <mxGeometry width="50" height="50" relative="1" as="geometry">
            <mxPoint x="479" y="3394" as="sourcePoint" />
            <mxPoint x="591" y="3394" as="targetPoint" />
            <Array as="points">
              <mxPoint x="529" y="3394" />
            </Array>
          </mxGeometry>
        </mxCell>
        <mxCell id="o2TosGsKYlfITXXoR4Qn-98" value="Transfer SFTP" style="text;html=1;resizable=0;autosize=1;align=center;verticalAlign=middle;points=[];fillColor=none;strokeColor=none;rounded=0;dashed=0;labelBackgroundColor=#ffffff;fontColor=#232F3E;" parent="1" vertex="1">
          <mxGeometry x="401" y="3324" width="90" height="20" as="geometry" />
        </mxCell>
        <mxCell id="o2TosGsKYlfITXXoR4Qn-99" value="" style="outlineConnect=0;fontColor=#232F3E;gradientColor=none;fillColor=#277116;strokeColor=none;dashed=0;verticalLabelPosition=bottom;verticalAlign=top;align=center;html=1;fontSize=12;fontStyle=0;aspect=fixed;pointerEvents=1;shape=mxgraph.aws4.bucket;labelBackgroundColor=#ffffff;" parent="1" vertex="1">
          <mxGeometry x="596" y="3344" width="75" height="78" as="geometry" />
        </mxCell>
        <mxCell id="o2TosGsKYlfITXXoR4Qn-100" style="edgeStyle=orthogonalEdgeStyle;rounded=0;orthogonalLoop=1;jettySize=auto;html=1;" parent="1" source="o2TosGsKYlfITXXoR4Qn-101" target="o2TosGsKYlfITXXoR4Qn-95" edge="1">
          <mxGeometry relative="1" as="geometry" />
        </mxCell>
        <mxCell id="o2TosGsKYlfITXXoR4Qn-101" value="" style="points=[[0,0,0],[0.25,0,0],[0.5,0,0],[0.75,0,0],[1,0,0],[0,1,0],[0.25,1,0],[0.5,1,0],[0.75,1,0],[1,1,0],[0,0.25,0],[0,0.5,0],[0,0.75,0],[1,0.25,0],[1,0.5,0],[1,0.75,0]];outlineConnect=0;fontColor=#232F3E;gradientColor=#945DF2;gradientDirection=north;fillColor=#5A30B5;strokeColor=#ffffff;dashed=0;verticalLabelPosition=bottom;verticalAlign=top;align=center;html=1;fontSize=12;fontStyle=0;aspect=fixed;shape=mxgraph.aws4.resourceIcon;resIcon=mxgraph.aws4.client_vpn;labelBackgroundColor=#ffffff;" parent="1" vertex="1">
          <mxGeometry x="891" y="2634" width="78" height="78" as="geometry" />
        </mxCell>
        <mxCell id="o2TosGsKYlfITXXoR4Qn-102" value="VPN Client" style="text;html=1;resizable=0;autosize=1;align=center;verticalAlign=middle;points=[];fillColor=none;strokeColor=none;rounded=0;dashed=0;labelBackgroundColor=#ffffff;fontColor=#232F3E;" parent="1" vertex="1">
          <mxGeometry x="894" y="2714" width="70" height="20" as="geometry" />
        </mxCell>
        <mxCell id="o2TosGsKYlfITXXoR4Qn-103" value="S3 Bucket" style="text;html=1;resizable=0;autosize=1;align=center;verticalAlign=middle;points=[];fillColor=none;strokeColor=none;rounded=0;dashed=0;labelBackgroundColor=#ffffff;fontColor=#232F3E;" parent="1" vertex="1">
          <mxGeometry x="596" y="3324" width="70" height="20" as="geometry" />
        </mxCell>
        <mxCell id="o2TosGsKYlfITXXoR4Qn-104" value="Cloudwatch" style="text;html=1;resizable=0;autosize=1;align=center;verticalAlign=middle;points=[];fillColor=none;strokeColor=none;rounded=0;dashed=0;labelBackgroundColor=#ffffff;fontColor=#232F3E;" parent="1" vertex="1">
          <mxGeometry x="749.5" y="3162" width="80" height="20" as="geometry" />
        </mxCell>
        <mxCell id="o2TosGsKYlfITXXoR4Qn-105" value="ELB" style="text;html=1;resizable=0;autosize=1;align=center;verticalAlign=middle;points=[];fillColor=none;strokeColor=none;rounded=0;" parent="1" vertex="1">
          <mxGeometry x="507.5" y="2951" width="40" height="20" as="geometry" />
        </mxCell>
        <mxCell id="o2TosGsKYlfITXXoR4Qn-106" style="edgeStyle=orthogonalEdgeStyle;rounded=0;orthogonalLoop=1;jettySize=auto;html=1;" parent="1" source="o2TosGsKYlfITXXoR4Qn-107" edge="1">
          <mxGeometry relative="1" as="geometry">
            <mxPoint x="1159.9999999999995" y="2984" as="targetPoint" />
          </mxGeometry>
        </mxCell>
        <mxCell id="o2TosGsKYlfITXXoR4Qn-107" value="" style="points=[[0,0,0],[0.25,0,0],[0.5,0,0],[0.75,0,0],[1,0,0],[0,1,0],[0.25,1,0],[0.5,1,0],[0.75,1,0],[1,1,0],[0,0.25,0],[0,0.5,0],[0,0.75,0],[1,0.25,0],[1,0.5,0],[1,0.75,0]];outlineConnect=0;fontColor=#232F3E;gradientColor=#945DF2;gradientDirection=north;fillColor=#5A30B5;strokeColor=#ffffff;dashed=0;verticalLabelPosition=bottom;verticalAlign=top;align=center;html=1;fontSize=12;fontStyle=0;aspect=fixed;shape=mxgraph.aws4.resourceIcon;resIcon=mxgraph.aws4.athena;" parent="1" vertex="1">
          <mxGeometry x="1121" y="3064" width="78" height="78" as="geometry" />
        </mxCell>
        <mxCell id="o2TosGsKYlfITXXoR4Qn-108" value="athena connecter" style="text;html=1;resizable=0;autosize=1;align=center;verticalAlign=middle;points=[];fillColor=none;strokeColor=none;rounded=0;" parent="1" vertex="1">
          <mxGeometry x="1105" y="3036" width="110" height="20" as="geometry" />
        </mxCell>
        <mxCell id="o2TosGsKYlfITXXoR4Qn-109" style="edgeStyle=orthogonalEdgeStyle;rounded=0;orthogonalLoop=1;jettySize=auto;html=1;" parent="1" source="o2TosGsKYlfITXXoR4Qn-110" target="o2TosGsKYlfITXXoR4Qn-95" edge="1">
          <mxGeometry relative="1" as="geometry" />
        </mxCell>
        <mxCell id="o2TosGsKYlfITXXoR4Qn-110" value="" style="points=[[0,0,0],[0.25,0,0],[0.5,0,0],[0.75,0,0],[1,0,0],[0,1,0],[0.25,1,0],[0.5,1,0],[0.75,1,0],[1,1,0],[0,0.25,0],[0,0.5,0],[0,0.75,0],[1,0.25,0],[1,0.5,0],[1,0.75,0]];outlineConnect=0;fontColor=#232F3E;gradientColor=#945DF2;gradientDirection=north;fillColor=#5A30B5;strokeColor=#ffffff;dashed=0;verticalLabelPosition=bottom;verticalAlign=top;align=center;html=1;fontSize=12;fontStyle=0;aspect=fixed;shape=mxgraph.aws4.resourceIcon;resIcon=mxgraph.aws4.quicksight;" parent="1" vertex="1">
          <mxGeometry x="1121" y="2904" width="78" height="78" as="geometry" />
        </mxCell>
        <mxCell id="o2TosGsKYlfITXXoR4Qn-111" value="Quicksight" style="text;html=1;resizable=0;autosize=1;align=center;verticalAlign=middle;points=[];fillColor=none;strokeColor=none;rounded=0;" parent="1" vertex="1">
          <mxGeometry x="1125" y="2877" width="70" height="20" as="geometry" />
        </mxCell>
        <mxCell id="o2TosGsKYlfITXXoR4Qn-112" value="&lt;span style=&quot;font-family: &amp;#34;times new roman&amp;#34; ; font-size: 31px&quot;&gt;TEST&lt;/span&gt;" style="text;html=1;resizable=0;autosize=1;align=center;verticalAlign=middle;points=[];fillColor=none;strokeColor=none;rounded=0;" parent="1" vertex="1">
          <mxGeometry x="448" y="150" width="90" height="30" as="geometry" />
        </mxCell>
        <mxCell id="o2TosGsKYlfITXXoR4Qn-113" value="&lt;span style=&quot;font-family: &amp;#34;times new roman&amp;#34; ; font-size: 31px&quot;&gt;ACCEPTANCE&lt;/span&gt;" style="text;html=1;resizable=0;autosize=1;align=center;verticalAlign=middle;points=[];fillColor=none;strokeColor=none;rounded=0;" parent="1" vertex="1">
          <mxGeometry x="434" y="1310" width="220" height="30" as="geometry" />
        </mxCell>
        <mxCell id="o2TosGsKYlfITXXoR4Qn-114" value="&lt;span style=&quot;font-family: &amp;#34;times new roman&amp;#34; ; font-size: 31px&quot;&gt;PRODUCTION&lt;/span&gt;" style="text;html=1;resizable=0;autosize=1;align=center;verticalAlign=middle;points=[];fillColor=none;strokeColor=none;rounded=0;" parent="1" vertex="1">
          <mxGeometry x="435" y="2460" width="220" height="30" as="geometry" />
        </mxCell>
      </root>
    </mxGraphModel>
  </diagram>
</mxfile>
